<svg xmlns="http://www.w3.org/2000/svg" width="32.724" height="32.724" viewBox="0 0 32.724 32.724">
  <g id="create" transform="translate(-48 -48)">
    <path id="Path_18403" data-name="Path 18403" d="M227.817,48.413a1.263,1.263,0,0,0-1.827-.044l-.973.968a.629.629,0,0,0,0,.89l.892.89a.629.629,0,0,0,.892,0l.949-.944A1.279,1.279,0,0,0,227.817,48.413ZM223.05,51.3l-14.2,14.175a.708.708,0,0,0-.182.309l-.657,1.956a.308.308,0,0,0,.382.382l1.955-.657a.708.708,0,0,0,.309-.182l14.175-14.2a.708.708,0,0,0,0-1l-.783-.787A.708.708,0,0,0,223.05,51.3Z" transform="translate(-147.413)" fill="#38c3e0"/>
    <path id="Path_18404" data-name="Path 18404" d="M74.615,118.424l-9.588,9.607a3.232,3.232,0,0,1-1.327.8l-2.037.682a2.826,2.826,0,0,1-3.487-3.487l.682-2.037a3.231,3.231,0,0,1,.8-1.327l9.607-9.59A.629.629,0,0,0,68.822,112H52.405A4.405,4.405,0,0,0,48,116.405v18.879a4.405,4.405,0,0,0,4.405,4.405H71.285a4.405,4.405,0,0,0,4.405-4.405V118.868a.629.629,0,0,0-1.075-.444Z" transform="translate(0 -58.966)" fill="#38c3e0"/>
  </g>
</svg>
