<svg id="Frame_4079" data-name="Frame 4079" xmlns="http://www.w3.org/2000/svg" xmlns:xlink="http://www.w3.org/1999/xlink" width="216" height="92" viewBox="0 0 216 92">
  <defs>
    <clipPath id="clip-path">
      <rect id="Frame_4079_Background_Mask_" data-name="Frame 4079 (Background/Mask)" width="216" height="92" fill="none"/>
    </clipPath>
  </defs>
  <rect id="Frame_4079_Background_Mask_2" data-name="Frame 4079 (Background/Mask)" width="216" height="92" fill="none"/>
  <g id="Frame_4079-2" data-name="Frame 4079" clip-path="url(#clip-path)">
    <g id="Frame_4078" data-name="Frame 4078" transform="translate(-21)">
      <path id="Vector_61" data-name="Vector 61" d="M0,0,10.75,10.75a15.2,15.2,0,0,0,21.5,0h0a15.2,15.2,0,0,1,21.5,0h0a15.2,15.2,0,0,0,21.5,0h0a15.2,15.2,0,0,1,21.5,0h0a15.2,15.2,0,0,0,21.5,0h0a15.2,15.2,0,0,1,21.5,0h0a15.2,15.2,0,0,0,21.5,0h0a15.2,15.2,0,0,1,21.5,0h0a15.2,15.2,0,0,0,21.5,0h0a15.2,15.2,0,0,1,21.5,0L236.5,21.5" fill="none" stroke="#fff" stroke-width="1" stroke-dasharray="0 0"/>
      <path id="Vector_62" data-name="Vector 62" d="M0,0,10.75,10.75a15.2,15.2,0,0,0,21.5,0h0a15.2,15.2,0,0,1,21.5,0h0a15.2,15.2,0,0,0,21.5,0h0a15.2,15.2,0,0,1,21.5,0h0a15.2,15.2,0,0,0,21.5,0h0a15.2,15.2,0,0,1,21.5,0h0a15.2,15.2,0,0,0,21.5,0h0a15.2,15.2,0,0,1,21.5,0h0a15.2,15.2,0,0,0,21.5,0h0a15.2,15.2,0,0,1,21.5,0L236.5,21.5" transform="translate(0 23.5)" fill="none" stroke="#fff" stroke-width="1" stroke-dasharray="0 0"/>
      <path id="Vector_63" data-name="Vector 63" d="M0,0,10.75,10.75a15.2,15.2,0,0,0,21.5,0h0a15.2,15.2,0,0,1,21.5,0h0a15.2,15.2,0,0,0,21.5,0h0a15.2,15.2,0,0,1,21.5,0h0a15.2,15.2,0,0,0,21.5,0h0a15.2,15.2,0,0,1,21.5,0h0a15.2,15.2,0,0,0,21.5,0h0a15.2,15.2,0,0,1,21.5,0h0a15.2,15.2,0,0,0,21.5,0h0a15.2,15.2,0,0,1,21.5,0L236.5,21.5" transform="translate(0 47)" fill="none" stroke="#fff" stroke-width="1" stroke-dasharray="0 0"/>
      <path id="Vector_64" data-name="Vector 64" d="M0,0,10.75,10.75a15.2,15.2,0,0,0,21.5,0h0a15.2,15.2,0,0,1,21.5,0h0a15.2,15.2,0,0,0,21.5,0h0a15.2,15.2,0,0,1,21.5,0h0a15.2,15.2,0,0,0,21.5,0h0a15.2,15.2,0,0,1,21.5,0h0a15.2,15.2,0,0,0,21.5,0h0a15.2,15.2,0,0,1,21.5,0h0a15.2,15.2,0,0,0,21.5,0h0a15.2,15.2,0,0,1,21.5,0L236.5,21.5" transform="translate(0 70.5)" fill="none" stroke="#fff" stroke-width="1" stroke-dasharray="0 0"/>
    </g>
  </g>
</svg>
