<svg xmlns="http://www.w3.org/2000/svg" width="2384.627" height="1355.78" viewBox="0 0 2384.627 1355.78">
  <g id="Group" transform="translate(0.057 0.495)">
    <path id="Vector" d="M0,317.36s195.643-36.241,246.121-163.084C294.4,32.684,493.258,0,493.258,0" transform="translate(2384.479 1354.788) rotate(180)" fill="none" stroke="#fff" stroke-width="1" stroke-dasharray="0 0"/>
    <path id="Vector-2" data-name="Vector" d="M0,378.324S240.023,336.5,301.849,183.4C360.8,37.256,604.546,0,604.546,0" transform="translate(2384.479 1354.788) rotate(180)" fill="none" stroke="#fff" stroke-width="1" stroke-dasharray="0 0"/>
    <path id="Vector-3" data-name="Vector" d="M0,439.46s284.233-47.587,357.409-226.589C427.2,41.66,715.834,0,715.834,0" transform="translate(2384.479 1354.788) rotate(180)" fill="none" stroke="#fff" stroke-width="1" stroke-dasharray="0 0"/>
    <path id="Vector-4" data-name="Vector" d="M0,500.426S328.613,447.25,413.137,242C493.6,46.232,827.122,0,827.122,0" transform="translate(2384.479 1354.788) rotate(180)" fill="none" stroke="#fff" stroke-width="1" stroke-dasharray="0 0"/>
    <path id="Vector-5" data-name="Vector" d="M0,561.391S372.992,502.627,468.866,271.3C560,50.8,938.241,0,938.241,0" transform="translate(2384.479 1354.788) rotate(180)" fill="none" stroke="#fff" stroke-width="1" stroke-dasharray="0 0"/>
    <path id="Vector-6" data-name="Vector" d="M0,622.526s417.2-64.352,524.426-321.932C626.566,55.207,1049.528,0,1049.528,0" transform="translate(2384.479 1354.788) rotate(180)" fill="none" stroke="#fff" stroke-width="1" stroke-dasharray="0 0"/>
    <path id="Vector-7" data-name="Vector" d="M0,683.491s461.582-70.111,580.154-353.6C692.967,59.78,1160.816,0,1160.816,0" transform="translate(2384.479 1354.788) rotate(180)" fill="none" stroke="#fff" stroke-width="1" stroke-dasharray="0 0"/>
    <path id="Vector-8" data-name="Vector" d="M0,744.457s505.963-75.7,635.713-385.437C759.366,64.352,1272.1,0,1272.1,0" transform="translate(2384.479 1354.788) rotate(180)" fill="none" stroke="#fff" stroke-width="1" stroke-dasharray="0 0"/>
    <path id="Vector-9" data-name="Vector" d="M0,805.593S550.172,724.3,691.442,388.485C825.767,68.755,1383.224,0,1383.224,0" transform="translate(2384.479 1354.788) rotate(180)" fill="none" stroke="#fff" stroke-width="1" stroke-dasharray="0 0"/>
    <path id="Vector-10" data-name="Vector" d="M0,866.553s594.552-86.871,747-448.77C892.167,73.327,1494.511,0,1494.511,0" transform="translate(2384.479 1354.788) rotate(180)" fill="none" stroke="#fff" stroke-width="1" stroke-dasharray="0 0"/>
    <path id="Vector-11" data-name="Vector" d="M0,927.689S638.932,835.058,802.731,447.08C958.567,77.9,1605.8,0,1605.8,0" transform="translate(2384.479 1354.788) rotate(180)" fill="none" stroke="#fff" stroke-width="1" stroke-dasharray="0 0"/>
    <path id="Vector-12" data-name="Vector" d="M0,988.659s683.142-98.223,858.289-512.281C1024.967,82.3,1717.084,0,1717.084,0" transform="translate(2384.479 1354.788) rotate(180)" fill="none" stroke="#fff" stroke-width="1" stroke-dasharray="0 0"/>
    <path id="Vector-13" data-name="Vector" d="M0,1049.617s727.521-103.8,914.018-544.112C1091.368,86.876,1828.371,0,1828.371,0" transform="translate(2384.479 1354.788) rotate(180)" fill="none" stroke="#fff" stroke-width="1" stroke-dasharray="0 0"/>
    <path id="Vector-14" data-name="Vector" d="M0,1110.753s771.9-109.562,969.747-575.781C1157.767,91.448,1939.494,0,1939.494,0" transform="translate(2384.479 1354.788) rotate(180)" fill="none" stroke="#fff" stroke-width="1" stroke-dasharray="0 0"/>
    <path id="Vector-15" data-name="Vector" d="M0,1171.724S816.111,1056.568,1025.306,564.1C1224.168,95.851,2050.782,0,2050.782,0" transform="translate(2384.479 1354.788) rotate(180)" fill="none" stroke="#fff" stroke-width="1" stroke-dasharray="0 0"/>
    <path id="Vector-16" data-name="Vector" d="M0,1232.694s860.492-120.749,1081.035-639.3C1290.568,100.424,2162.069,0,2162.069,0" transform="translate(2384.479 1354.788) rotate(180)" fill="none" stroke="#fff" stroke-width="1" stroke-dasharray="0 0"/>
    <path id="Vector-17" data-name="Vector" d="M0,1293.83S904.871,1167.487,1136.593,622.7C1356.967,105,2273.357,0,2273.357,0" transform="translate(2384.479 1354.788) rotate(180)" fill="none" stroke="#fff" stroke-width="1" stroke-dasharray="0 0"/>
    <path id="Vector-18" data-name="Vector" d="M0,1354.788s949.082-132.089,1192.322-702.8C1423.368,109.4,2384.479,0,2384.479,0" transform="translate(2384.479 1354.788) rotate(180)" fill="none" stroke="#fff" stroke-width="1" stroke-dasharray="0 0"/>
  </g>
</svg>
