<svg xmlns="http://www.w3.org/2000/svg" width="41.762" height="30.228" viewBox="0 0 41.762 30.228">
  <g id="Group_10936" data-name="Group 10936" transform="translate(-165.957 -1256.69)">
    <path id="bulb" d="M107.567,42.989h-3.856a.964.964,0,1,0,0,1.928h3.856a.964.964,0,1,0,0-1.928Zm.964-2.892h-5.784a.964.964,0,1,0,0,1.928h5.784a.964.964,0,0,0,0-1.928Zm3.941-21.285A9.646,9.646,0,0,0,96,25.639a9.9,9.9,0,0,0,2.952,7.208l.263.246c1.085,1.015,2.569,2.4,2.569,3.631V38.17a.964.964,0,0,0,.964.964h1.446a.482.482,0,0,0,.482-.482v-7.06a.482.482,0,0,0-.309-.45,7.875,7.875,0,0,1-1.576-.865.964.964,0,1,1,1.119-1.566,4.343,4.343,0,0,0,1.73.783,4.372,4.372,0,0,0,1.731-.783.964.964,0,0,1,1.118,1.566,7.876,7.876,0,0,1-1.576.863.482.482,0,0,0-.309.45v7.061a.482.482,0,0,0,.482.482h1.446a.964.964,0,0,0,.964-.964V36.724c0-1.2,1.468-2.586,2.539-3.6l.3-.281a9.692,9.692,0,0,0,2.948-7.2,9.588,9.588,0,0,0-2.806-6.826Z" transform="translate(80.704 1242)" fill="#38c3e0"/>
    <g id="Group_10934" data-name="Group 10934" transform="translate(167.9 1259.901)">
      <path id="Path_18400" data-name="Path 18400" d="M-1766.235-695.215l4.945-1.943" transform="translate(1768.263 711.964)" fill="none" stroke="#38c3e0" stroke-linecap="round" stroke-width="2.5"/>
      <path id="Path_18401" data-name="Path 18401" d="M0,1.943,4.945,0" transform="translate(0.437 7.72) rotate(13)" fill="none" stroke="#38c3e0" stroke-linecap="round" stroke-width="2.5"/>
      <path id="Path_18402" data-name="Path 18402" d="M0,1.943,4.945,0" transform="matrix(0.788, 0.616, -0.616, 0.788, 3.076, 0)" fill="none" stroke="#38c3e0" stroke-linecap="round" stroke-width="2.5"/>
    </g>
    <g id="Group_10935" data-name="Group 10935" transform="translate(198.802 1258.965)">
      <path id="Path_18400-2" data-name="Path 18400" d="M-1761.29-695.215l-4.945-1.943" transform="translate(1766.235 711.964)" fill="none" stroke="#38c3e0" stroke-linecap="round" stroke-width="2.5"/>
      <path id="Path_18401-2" data-name="Path 18401" d="M0,0,4.945,1.943" transform="translate(6.973 9.613) rotate(167)" fill="none" stroke="#38c3e0" stroke-linecap="round" stroke-width="2.5"/>
      <path id="Path_18402-2" data-name="Path 18402" d="M0,0,4.945,1.943" transform="matrix(-0.788, 0.616, -0.616, -0.788, 5.093, 1.531)" fill="none" stroke="#38c3e0" stroke-linecap="round" stroke-width="2.5"/>
    </g>
  </g>
</svg>
